<svg width="31" height="31" viewBox="0 0 31 31" fill="none" xmlns="http://www.w3.org/2000/svg">
<path fill-rule="evenodd" clip-rule="evenodd" d="M0.979889 26.0416C0.198883 26.8227 0.198883 28.089 0.979889 28.8701L1.54556 29.4357C2.32669 30.2168 3.59293 30.2168 4.37405 29.4357L15.0657 18.7441L26.0417 29.72C26.8227 30.5011 28.089 30.5011 28.87 29.72L29.4358 29.1543C30.2168 28.3733 30.2168 27.107 29.4358 26.3259L18.4599 15.3499L29.8299 3.9799C30.6109 3.19885 30.6109 1.93252 29.8299 1.15148L29.2642 0.585789C28.4832 -0.195263 27.2168 -0.195263 26.4358 0.585789L15.0657 11.9559L3.97989 0.87006C3.19888 0.0890083 1.93253 0.0890083 1.15152 0.87006L0.585846 1.43574C-0.195282 2.21679 -0.195282 3.48312 0.585846 4.26417L11.6717 15.3499L0.979889 26.0416Z" fill="#80D1FF"/>
</svg>
