<svg width="342" height="174" viewBox="0 0 342 174" fill="none" xmlns="http://www.w3.org/2000/svg">
<path d="M93.92 0V38.25C93.92 46.59 91.85 52.89 87.71 57.15C83.63 61.41 77.84 63.54 70.34 63.54C65.36 63.54 61.1 62.58 57.56 60.66C54.08 58.74 51.5 56.01 49.82 52.47C48.08 56.07 45.47 58.83 41.99 60.75C38.51 62.61 34.31 63.54 29.39 63.54C21.83 63.54 15.98 61.41 11.84 57.15C7.75999 52.89 5.71999 46.59 5.71999 38.25V0H12.38V37.98C12.38 51.06 18.05 57.6 29.39 57.6C34.85 57.6 39.08 56.01 42.08 52.83C45.08 49.59 46.58 44.64 46.58 37.98V0H53.15V37.98C53.15 44.7 54.62 49.65 57.56 52.83C60.56 56.01 64.82 57.6 70.34 57.6C75.8 57.6 80 56.01 82.94 52.83C85.88 49.59 87.35 44.64 87.35 37.98V0H93.92Z" fill="white"/>
<path d="M155.776 15.66V63H149.656V53.64C147.736 56.82 145.186 59.25 142.006 60.93C138.886 62.61 135.346 63.45 131.386 63.45C126.946 63.45 122.926 62.43 119.326 60.39C115.726 58.35 112.906 55.5 110.866 51.84C108.826 48.18 107.806 44.01 107.806 39.33C107.806 34.65 108.826 30.48 110.866 26.82C112.906 23.16 115.726 20.34 119.326 18.36C122.926 16.32 126.946 15.3 131.386 15.3C135.226 15.3 138.676 16.11 141.736 17.73C144.856 19.29 147.406 21.6 149.386 24.66V15.66H155.776ZM131.926 57.78C135.226 57.78 138.196 57.03 140.836 55.53C143.536 53.97 145.636 51.78 147.136 48.96C148.696 46.14 149.476 42.93 149.476 39.33C149.476 35.73 148.696 32.52 147.136 29.7C145.636 26.88 143.536 24.72 140.836 23.22C138.196 21.66 135.226 20.88 131.926 20.88C128.566 20.88 125.536 21.66 122.836 23.22C120.196 24.72 118.096 26.88 116.536 29.7C115.036 32.52 114.286 35.73 114.286 39.33C114.286 42.93 115.036 46.14 116.536 48.96C118.096 51.78 120.196 53.97 122.836 55.53C125.536 57.03 128.566 57.78 131.926 57.78Z" fill="white"/>
<path d="M179.692 24.93C181.192 21.75 183.412 19.35 186.352 17.73C189.352 16.11 193.042 15.3 197.422 15.3V21.51L195.892 21.42C190.912 21.42 187.012 22.95 184.192 26.01C181.372 29.07 179.962 33.36 179.962 38.88V63H173.572V15.66H179.692V24.93Z" fill="white"/>
<path d="M215.112 24.93C216.612 21.75 218.832 19.35 221.772 17.73C224.772 16.11 228.462 15.3 232.842 15.3V21.51L231.312 21.42C226.332 21.42 222.432 22.95 219.612 26.01C216.792 29.07 215.382 33.36 215.382 38.88V63H208.992V15.66H215.112V24.93Z" fill="white"/>
<path d="M264.223 57.78C267.163 57.78 269.863 57.27 272.323 56.25C274.843 55.17 276.972 53.61 278.712 51.57L282.312 55.71C280.212 58.23 277.603 60.15 274.483 61.47C271.363 62.79 267.913 63.45 264.133 63.45C259.273 63.45 254.952 62.43 251.172 60.39C247.392 58.29 244.452 55.41 242.352 51.75C240.252 48.09 239.202 43.95 239.202 39.33C239.202 34.71 240.192 30.57 242.172 26.91C244.212 23.25 247.002 20.4 250.542 18.36C254.082 16.32 258.103 15.3 262.603 15.3C266.803 15.3 270.583 16.26 273.943 18.18C277.363 20.1 280.063 22.77 282.043 26.19C284.083 29.61 285.163 33.51 285.283 37.89L246.402 45.45C247.602 49.29 249.763 52.32 252.883 54.54C256.063 56.7 259.843 57.78 264.223 57.78ZM262.603 20.79C259.303 20.79 256.333 21.57 253.693 23.13C251.113 24.63 249.072 26.76 247.572 29.52C246.132 32.22 245.413 35.34 245.413 38.88C245.413 39.78 245.443 40.44 245.503 40.86L278.892 34.38C278.172 30.42 276.342 27.18 273.402 24.66C270.462 22.08 266.863 20.79 262.603 20.79Z" fill="white"/>
<path d="M322.409 15.3C328.349 15.3 333.059 17.04 336.539 20.52C340.079 23.94 341.849 28.95 341.849 35.55V63H335.459V36.18C335.459 31.26 334.229 27.51 331.769 24.93C329.309 22.35 325.799 21.06 321.239 21.06C316.139 21.06 312.089 22.59 309.089 25.65C306.149 28.65 304.679 32.82 304.679 38.16V63H298.289V15.66H304.409V24.39C306.149 21.51 308.549 19.29 311.609 17.73C314.729 16.11 318.329 15.3 322.409 15.3Z" fill="white"/>
<path d="M33.62 173.54C27.38 173.54 21.74 172.16 16.7 169.4C11.72 166.64 7.78999 162.83 4.90999 157.97C2.08999 153.05 0.679993 147.56 0.679993 141.5C0.679993 135.44 2.08999 129.98 4.90999 125.12C7.78999 120.2 11.75 116.36 16.79 113.6C21.83 110.84 27.47 109.46 33.71 109.46C38.39 109.46 42.71 110.24 46.67 111.8C50.63 113.36 53.99 115.64 56.75 118.64L52.52 122.87C47.6 117.89 41.39 115.4 33.89 115.4C28.91 115.4 24.38 116.54 20.3 118.82C16.22 121.1 13.01 124.22 10.67 128.18C8.38999 132.14 7.24999 136.58 7.24999 141.5C7.24999 146.42 8.38999 150.86 10.67 154.82C13.01 158.78 16.22 161.9 20.3 164.18C24.38 166.46 28.91 167.6 33.89 167.6C41.45 167.6 47.66 165.08 52.52 160.04L56.75 164.27C53.99 167.27 50.6 169.58 46.58 171.2C42.62 172.76 38.3 173.54 33.62 173.54Z" fill="white"/>
<path d="M93.7175 125.3C99.6575 125.3 104.367 127.04 107.847 130.52C111.387 133.94 113.157 138.95 113.157 145.55V173H106.767V146.18C106.767 141.26 105.537 137.51 103.077 134.93C100.617 132.35 97.1075 131.06 92.5475 131.06C87.4475 131.06 83.3975 132.59 80.3975 135.65C77.4575 138.65 75.9875 142.82 75.9875 148.16V173H69.5975V106.22H75.9875V133.94C77.7275 131.18 80.1275 129.05 83.1875 127.55C86.2475 126.05 89.7575 125.3 93.7175 125.3Z" fill="white"/>
<path d="M150.931 167.78C153.871 167.78 156.571 167.27 159.031 166.25C161.551 165.17 163.681 163.61 165.421 161.57L169.021 165.71C166.921 168.23 164.311 170.15 161.191 171.47C158.071 172.79 154.621 173.45 150.841 173.45C145.981 173.45 141.661 172.43 137.881 170.39C134.101 168.29 131.161 165.41 129.061 161.75C126.961 158.09 125.911 153.95 125.911 149.33C125.911 144.71 126.901 140.57 128.881 136.91C130.921 133.25 133.711 130.4 137.251 128.36C140.791 126.32 144.811 125.3 149.311 125.3C153.511 125.3 157.291 126.26 160.651 128.18C164.071 130.1 166.771 132.77 168.751 136.19C170.791 139.61 171.871 143.51 171.991 147.89L133.111 155.45C134.311 159.29 136.471 162.32 139.591 164.54C142.771 166.7 146.551 167.78 150.931 167.78ZM149.311 130.79C146.011 130.79 143.041 131.57 140.401 133.13C137.821 134.63 135.781 136.76 134.281 139.52C132.841 142.22 132.121 145.34 132.121 148.88C132.121 149.78 132.151 150.44 132.211 150.86L165.601 144.38C164.881 140.42 163.051 137.18 160.111 134.66C157.171 132.08 153.571 130.79 149.311 130.79Z" fill="white"/>
<path d="M209.118 125.3C215.058 125.3 219.768 127.04 223.248 130.52C226.788 133.94 228.558 138.95 228.558 145.55V173H222.168V146.18C222.168 141.26 220.938 137.51 218.478 134.93C216.018 132.35 212.508 131.06 207.948 131.06C202.848 131.06 198.798 132.59 195.798 135.65C192.858 138.65 191.388 142.82 191.388 148.16V173H184.998V125.66H191.118V134.39C192.858 131.51 195.258 129.29 198.318 127.73C201.438 126.11 205.038 125.3 209.118 125.3Z" fill="white"/>
</svg>

