<svg id="Layer_1" data-name="Layer 1" xmlns="http://www.w3.org/2000/svg" viewBox="0 0 647.4 129.35"><defs><style>.cls-1{fill:#ffed8f;}.cls-2,.cls-3{fill:#12ee9f;stroke:#12ee9f;}.cls-2,.cls-3,.cls-4{stroke-miterlimit:10;}.cls-2{stroke-width:1.15px;}.cls-3{stroke-width:1.44px;}.cls-4{fill:none;stroke:#995a9e;stroke-width:3.44px;}</style></defs><path class="cls-1" d="M165.88,91.64c0-3.15-.95-5.49-2.85-7a11.84,11.84,0,0,0-7.59-2.28,16.49,16.49,0,0,0-6.73,1.39,17,17,0,0,0-5.31,3.52l-4.46-5.35a22.44,22.44,0,0,1,7.63-4.64,27.25,27.25,0,0,1,9.68-1.7,21.88,21.88,0,0,1,7.89,1.3,14.77,14.77,0,0,1,5.48,3.52,14.53,14.53,0,0,1,3.22,5.26,19.54,19.54,0,0,1,1.07,6.51v18.47c0,1.42,0,2.93.13,4.5a22.94,22.94,0,0,0,.49,3.88H167a26.12,26.12,0,0,1-.71-6.06H166a16.34,16.34,0,0,1-5.84,5.26,17.52,17.52,0,0,1-8.34,1.87,21.61,21.61,0,0,1-5.22-.67,14.93,14.93,0,0,1-4.95-2.18,12.25,12.25,0,0,1-3.7-4,11.92,11.92,0,0,1-1.47-6.15A10.86,10.86,0,0,1,139,99.44a16.48,16.48,0,0,1,6.78-4.28,38.55,38.55,0,0,1,9.45-1.92q5.27-.43,10.62-.44Zm-2,7.22q-3.12,0-6.47.27a30.24,30.24,0,0,0-6.06,1.07,11.52,11.52,0,0,0-4.51,2.41,5.47,5.47,0,0,0-1.78,4.28,5.86,5.86,0,0,0,.76,3.12,6.12,6.12,0,0,0,2,2,8.12,8.12,0,0,0,2.77,1.12,15.29,15.29,0,0,0,3.12.31q5.88,0,9.05-3.52a12.8,12.8,0,0,0,3.17-8.88V98.86Z"/><path class="cls-1" d="M186.33,81.47c-.06-1.78-.15-3.36-.27-4.73H194c.12,1.07.21,2.31.27,3.71s.09,2.54.09,3.43h.27a14.49,14.49,0,0,1,5.21-6,13.64,13.64,0,0,1,7.72-2.28,12.93,12.93,0,0,1,3.3.36l-.36,7.76a15.65,15.65,0,0,0-3.83-.45,11.7,11.7,0,0,0-5.27,1.12,10.74,10.74,0,0,0-3.7,3,12.57,12.57,0,0,0-2.18,4.32,18.17,18.17,0,0,0-.72,5.13V119h-8.38V85.84C186.42,84.71,186.39,83.25,186.33,81.47Z"/><path class="cls-1" d="M220.54,81.47c-.06-1.78-.15-3.36-.27-4.73h7.94c.12,1.07.21,2.31.27,3.71s.09,2.54.09,3.43h.27a14.49,14.49,0,0,1,5.21-6,13.64,13.64,0,0,1,7.72-2.28,12.93,12.93,0,0,1,3.3.36l-.36,7.76a15.65,15.65,0,0,0-3.83-.45,11.7,11.7,0,0,0-5.27,1.12,10.74,10.74,0,0,0-3.7,3,12.57,12.57,0,0,0-2.18,4.32,18.17,18.17,0,0,0-.72,5.13V119h-8.38V85.84C220.63,84.71,220.6,83.25,220.54,81.47Z"/><path class="cls-1" d="M294.7,97.53V99a11.44,11.44,0,0,1-.09,1.43H261a12.39,12.39,0,0,0,1.21,5,13.05,13.05,0,0,0,3,4.08,14,14,0,0,0,9.54,3.67,14.1,14.1,0,0,0,7.4-1.87,15.09,15.09,0,0,0,4.91-4.55l5.89,4.73a21.16,21.16,0,0,1-8,6.62,25.59,25.59,0,0,1-19.13.51,20.68,20.68,0,0,1-7.05-4.5,20.92,20.92,0,0,1-4.63-7,23.64,23.64,0,0,1-1.7-9.1,24.24,24.24,0,0,1,1.65-9,20.72,20.72,0,0,1,4.61-7.09,21.07,21.07,0,0,1,7-4.6,23.92,23.92,0,0,1,17.12-.13,17.45,17.45,0,0,1,6.43,4.37,19.61,19.61,0,0,1,4.07,6.91A27.54,27.54,0,0,1,294.7,97.53Zm-8.56-3.39a16.18,16.18,0,0,0-.85-4.69,10.89,10.89,0,0,0-2.23-3.79,10.53,10.53,0,0,0-3.66-2.54,13,13,0,0,0-5.13-.94,13.68,13.68,0,0,0-5,.94,13.25,13.25,0,0,0-4.1,2.54,13.39,13.39,0,0,0-2.85,3.79,12,12,0,0,0-1.3,4.69Z"/><path class="cls-1" d="M314.78,76.74c.12,1.07.21,2.28.27,3.62s.09,2.45.09,3.34h.27a12.21,12.21,0,0,1,2.18-3.17A15.68,15.68,0,0,1,320.76,78a15.1,15.1,0,0,1,3.92-1.74,15.71,15.71,0,0,1,4.46-.63A16.33,16.33,0,0,1,336.19,77a14.21,14.21,0,0,1,4.9,3.7,14.84,14.84,0,0,1,2.9,5.44,23,23,0,0,1,.94,6.69V119h-8.39V95.56a28.43,28.43,0,0,0-.4-4.9,12,12,0,0,0-1.47-4.11,8,8,0,0,0-2.94-2.85,9.69,9.69,0,0,0-4.82-1.07,10.13,10.13,0,0,0-8.16,3.79q-3.17,3.8-3.17,10.12V119H307.2V85.84c0-1.13,0-2.59-.09-4.37s-.15-3.36-.27-4.73Z"/><path class="cls-1" d="M34.51,106.11h.28L59.13,22.37H71l24.34,83.74h.28l23.78-83.74H129.8l-28.73,97.36H89.52L65,36.12h-.27L40.29,119.73H28.74L0,22.37H10.45Z"/><path class="cls-1" d="M194.34,57.62a28.37,28.37,0,0,1-9.72,8.25A30.3,30.3,0,0,1,170.26,69a35.33,35.33,0,0,1-13.33-2.45,30.8,30.8,0,0,1-10.53-6.87,31.55,31.55,0,0,1-6.91-10.52A35,35,0,0,1,137,35.77a35,35,0,0,1,2.54-13.52,30.62,30.62,0,0,1,7.05-10.43,32.06,32.06,0,0,1,10.66-6.74,36.49,36.49,0,0,1,13.38-2.4,35.49,35.49,0,0,1,6.51.62,32.77,32.77,0,0,1,6.33,1.87A26.42,26.42,0,0,1,189,8.25a20,20,0,0,1,4.28,4.24l-7,5.35a17.38,17.38,0,0,0-6.55-5.31,20.44,20.44,0,0,0-9.14-2.09,23.77,23.77,0,0,0-10,2,22.53,22.53,0,0,0-7.53,5.49A24.69,24.69,0,0,0,148.32,26a28,28,0,0,0-1.7,9.77,29.66,29.66,0,0,0,1.65,10A24,24,0,0,0,153,53.83a21.69,21.69,0,0,0,7.49,5.39,24,24,0,0,0,9.86,2,21.87,21.87,0,0,0,9.72-2.14,18.81,18.81,0,0,0,7.23-6.25Z"/><path class="cls-1" d="M211.64,31.57a13.15,13.15,0,0,1,5.18-5.35A15.5,15.5,0,0,1,225,24a16.33,16.33,0,0,1,7,1.39,14.25,14.25,0,0,1,4.91,3.7,15.14,15.14,0,0,1,2.9,5.44,23.31,23.31,0,0,1,.93,6.69V67.43h-8.38V44a29.67,29.67,0,0,0-.4-4.91A11.88,11.88,0,0,0,230.55,35a8.16,8.16,0,0,0-2.89-2.86A9.45,9.45,0,0,0,222.88,31a10.26,10.26,0,0,0-8.2,3.8q-3.21,3.79-3.21,10.15V67.43h-8.39V0h8.39V31.57Z"/><path class="cls-1" d="M294.5,45.93v1.43a11.43,11.43,0,0,1-.08,1.43H260.79a12.54,12.54,0,0,0,1.2,5,13.21,13.21,0,0,0,3,4.08,14,14,0,0,0,9.55,3.67,14.1,14.1,0,0,0,7.4-1.87,15.17,15.17,0,0,0,4.9-4.55l5.89,4.73a21.06,21.06,0,0,1-8,6.62,25.59,25.59,0,0,1-19.13.51,20.58,20.58,0,0,1-7.05-4.5,20.94,20.94,0,0,1-4.64-7,23.64,23.64,0,0,1-1.69-9.1,24.24,24.24,0,0,1,1.65-9.05,20.7,20.7,0,0,1,4.6-7.09,21.06,21.06,0,0,1,7-4.6,23.89,23.89,0,0,1,17.11-.13A17.49,17.49,0,0,1,289,29.88a19.59,19.59,0,0,1,4.06,6.91A27.23,27.23,0,0,1,294.5,45.93Zm-8.56-3.39a16.17,16.17,0,0,0-.84-4.68,10.89,10.89,0,0,0-2.23-3.79,10.58,10.58,0,0,0-3.66-2.54,13,13,0,0,0-5.13-.94,13.68,13.68,0,0,0-5,.94,13,13,0,0,0-4.1,2.54,13.61,13.61,0,0,0-2.86,3.79,12.19,12.19,0,0,0-1.29,4.68Z"/><path class="cls-1" d="M313.68,25.15c.12,1.07.21,2.28.27,3.61s.09,2.46.09,3.35h.27a12.21,12.21,0,0,1,2.18-3.17,15.68,15.68,0,0,1,3.17-2.58,15.1,15.1,0,0,1,3.92-1.74A15.71,15.71,0,0,1,328,24a16.33,16.33,0,0,1,7,1.39,14.12,14.12,0,0,1,4.9,3.7,14.84,14.84,0,0,1,2.9,5.44,23,23,0,0,1,.94,6.69V67.43h-8.39V44a28.43,28.43,0,0,0-.4-4.9A12,12,0,0,0,333.57,35a7.89,7.89,0,0,0-2.94-2.85A9.69,9.69,0,0,0,325.81,31a10.13,10.13,0,0,0-8.16,3.79q-3.16,3.8-3.17,10.12V67.43H306.1V34.25c0-1.13,0-2.59-.09-4.37s-.15-3.36-.27-4.73Z"/><path class="cls-2" d="M381.05,54.07V12.15H404.5v2H383.28V31.92h19.49V34H383.28V54.07Z"/><path class="cls-2" d="M435,54.07h-2.19V47.72h-.15a10.33,10.33,0,0,1-5.26,5.83,11.75,11.75,0,0,1-5.26,1.08,12.72,12.72,0,0,1-5.48-1.16,9,9,0,0,1-3.89-3.53,11.54,11.54,0,0,1-1.43-6V22.21h2.16V43.58a10.08,10.08,0,0,0,1.08,4.79,7.53,7.53,0,0,0,3.07,3.13,9.51,9.51,0,0,0,4.67,1.09A9.81,9.81,0,0,0,428.1,51a10.58,10.58,0,0,0,3.54-4.24,12.72,12.72,0,0,0,1.22-5.42V22.21H435Z"/><path class="cls-2" d="M446.71,9.81h2.16V54.07h-2.16Z"/><path class="cls-2" d="M461,9.81h2.16V54.07H461Z"/><path class="cls-2" d="M472,37.75v-2h19.43v2Z"/><path class="cls-2" d="M500.25,43.65a10,10,0,0,0,.74,3,9.22,9.22,0,0,0,2.07,3.06,10.59,10.59,0,0,0,3.71,2.34,15.42,15.42,0,0,0,5.67.91,14.78,14.78,0,0,0,6.24-1.22,10,10,0,0,0,4.15-3.33,8.12,8.12,0,0,0,1.48-4.79c0-2.72-.87-4.72-2.6-6a23.23,23.23,0,0,0-7.52-3.3L509,32.94a17.81,17.81,0,0,1-5.18-2.19,9.47,9.47,0,0,1-3.29-3.44,10.17,10.17,0,0,1-1.12-4.95A10.58,10.58,0,0,1,501,16.53a10.82,10.82,0,0,1,4.59-4,16.22,16.22,0,0,1,7.11-1.44,15.6,15.6,0,0,1,7.16,1.47,11.06,11.06,0,0,1,4.38,3.79,9.22,9.22,0,0,1,1.54,5h-2.28a8.19,8.19,0,0,0-1.22-3.78,8.79,8.79,0,0,0-3.47-3.16,13,13,0,0,0-6.14-1.26c-3.41,0-6.1.84-8,2.53a8.34,8.34,0,0,0-2.93,6.63,7,7,0,0,0,2.16,5.57,16,16,0,0,0,6.23,3l5,1.36a29.65,29.65,0,0,1,6.31,2.37,10.19,10.19,0,0,1,3.87,3.44,9.84,9.84,0,0,1,1.33,5.35,10.4,10.4,0,0,1-1.83,6.11,11.62,11.62,0,0,1-5,4,18.51,18.51,0,0,1-7.54,1.42A17.61,17.61,0,0,1,505.66,54a12.35,12.35,0,0,1-4.38-2.81,11.45,11.45,0,0,1-2.48-3.71,10.79,10.79,0,0,1-.83-3.81Z"/><path class="cls-2" d="M537.69,14.49h2.19v7.75h9v1.88h-9V47c0,2,.44,3.41,1.32,4.19s2.44,1.18,4.66,1.18c.45,0,1,0,1.79-.1l1.67-.15v2c-.43.07-1,.12-1.79.17s-1.38.08-1.85.08a12.89,12.89,0,0,1-4.8-.72,4.51,4.51,0,0,1-2.47-2.36,10.86,10.86,0,0,1-.72-4.32V24.12h-6.3V22.24h6.3Z"/><path class="cls-2" d="M558.62,52.08a8.74,8.74,0,0,1-2.9-6.95,8.23,8.23,0,0,1,2.73-6.39c1.82-1.64,4.52-2.47,8.09-2.47h9.94V31.58c0-2.73-.82-4.73-2.44-6a10,10,0,0,0-6.29-1.89,10.52,10.52,0,0,0-4.66.88,7.16,7.16,0,0,0-2.7,2.11,5.14,5.14,0,0,0-1.06,2.41h-2.19a6.91,6.91,0,0,1,.84-2.75A7.68,7.68,0,0,1,560.05,24a10.67,10.67,0,0,1,3.3-1.69,14.89,14.89,0,0,1,4.55-.63,14,14,0,0,1,5.63,1.06,8.38,8.38,0,0,1,3.78,3.18,9.73,9.73,0,0,1,1.36,5.32V54.07h-2.16v-5.3h-.16a7.93,7.93,0,0,1-1.54,2.34,10.52,10.52,0,0,1-3.33,2.45,11.89,11.89,0,0,1-5.34,1.07A11,11,0,0,1,558.62,52.08Zm12.75-.64a10,10,0,0,0,3.69-3.24,8.53,8.53,0,0,0,1.42-4.89V38.25h-9.94q-4.41,0-6.44,1.93a6.46,6.46,0,0,0-2,4.92,6.84,6.84,0,0,0,2.35,5.47,8.76,8.76,0,0,0,6,2A10.86,10.86,0,0,0,571.37,51.44Z"/><path class="cls-2" d="M588.39,35.44A16,16,0,0,1,590,27.9a11,11,0,0,1,4.45-4.66,14.38,14.38,0,0,1,12.85-.09,10.46,10.46,0,0,1,3.91,3.68,9.61,9.61,0,0,1,1.47,4.51h-2.16a8.84,8.84,0,0,0-1.37-3.63A8.7,8.7,0,0,0,606,24.84a10.53,10.53,0,0,0-5.11-1.12,9.71,9.71,0,0,0-7.45,3.11q-2.88,3.12-2.88,9v4.57c0,4,1,7,2.87,9.07a10,10,0,0,0,7.71,3.11,10.8,10.8,0,0,0,5.15-1.06,7.73,7.73,0,0,0,3-2.7,9.57,9.57,0,0,0,1.33-3.33h2.13a10,10,0,0,1-5.18,7.71A15.25,15.25,0,0,1,594.36,53a10.68,10.68,0,0,1-4.4-4.7,16.94,16.94,0,0,1-1.57-7.67Z"/><path class="cls-2" d="M624.51,54.07h-2.16V9.81h2.16V38.22h.16l17.18-16h2.81L630.77,35.29l14.81,18.78h-2.81L629.14,36.74l-4.63,4.16Z"/><path class="cls-3" d="M393.09,76.85q6.53,0,10.66,2.56a15,15,0,0,1,6.08,7.21,28.37,28.37,0,0,1,1.95,11,29.09,29.09,0,0,1-1.92,11.08,14.9,14.9,0,0,1-6,7.23q-4.09,2.56-10.75,2.56H382.15V76.85Zm-8.73,39.62h8.73a19.22,19.22,0,0,0,7.44-1.31,12.53,12.53,0,0,0,5.12-3.78,16.09,16.09,0,0,0,2.94-6,29.22,29.22,0,0,0,1-7.77,26.13,26.13,0,0,0-1.73-9.94,13.62,13.62,0,0,0-5.36-6.52,17.08,17.08,0,0,0-9.36-2.32h-8.73Z"/><path class="cls-3" d="M426.65,117.34a10.91,10.91,0,0,1-4.33-4.89,18.14,18.14,0,0,1-1.52-7.78v-3.55a19.29,19.29,0,0,1,1.55-8.2,11.07,11.07,0,0,1,4.32-5,13.14,13.14,0,0,1,12.75,0,11.22,11.22,0,0,1,4.3,5,19.1,19.1,0,0,1,1.56,8.18v1.65H423v1.84q0,6,2.82,9.21a9.62,9.62,0,0,0,7.6,3.2,11,11,0,0,0,5-1,7.93,7.93,0,0,0,3-2.46,6.09,6.09,0,0,0,1.2-2.85h2.23a7.68,7.68,0,0,1-.85,2.74,9.36,9.36,0,0,1-2.13,2.71,10.88,10.88,0,0,1-3.51,2,14.1,14.1,0,0,1-5,.8A13,13,0,0,1,426.65,117.34Zm16.46-16.44v-.18A16.28,16.28,0,0,0,441.85,94a9.43,9.43,0,0,0-3.51-4.23,10.44,10.44,0,0,0-10.58,0A9.47,9.47,0,0,0,424.23,94a16.45,16.45,0,0,0-1.25,6.74v.18Z"/><path class="cls-3" d="M450.36,86.84h2.42l10.36,29h.18l10.45-28.95h2.33l-11.76,31.65H462.1Z"/><path class="cls-3" d="M487,117.34a10.85,10.85,0,0,1-4.33-4.89,18.14,18.14,0,0,1-1.52-7.78v-3.55a19.29,19.29,0,0,1,1.55-8.2,11.07,11.07,0,0,1,4.32-5,13.14,13.14,0,0,1,12.75,0,11.22,11.22,0,0,1,4.3,5,19.1,19.1,0,0,1,1.56,8.18v1.65h-22.3v1.84q0,6,2.82,9.21a9.6,9.6,0,0,0,7.59,3.2,11,11,0,0,0,5-1,7.93,7.93,0,0,0,3-2.46,6.19,6.19,0,0,0,1.2-2.85h2.23a7.68,7.68,0,0,1-.85,2.74,9.36,9.36,0,0,1-2.13,2.71,10.88,10.88,0,0,1-3.51,2,14.12,14.12,0,0,1-5,.8A13,13,0,0,1,487,117.34ZM503.5,100.9v-.18A16.28,16.28,0,0,0,502.24,94a9.43,9.43,0,0,0-3.51-4.23,10.44,10.44,0,0,0-10.58,0A9.4,9.4,0,0,0,484.62,94a16.29,16.29,0,0,0-1.25,6.74v.18Z"/><path class="cls-3" d="M516.1,74.52h2.15v44H516.1Z"/><path class="cls-3" d="M548,87.91a11.81,11.81,0,0,1,4.66,4.69,15.38,15.38,0,0,1,1.74,7.63v5a15.38,15.38,0,0,1-1.74,7.65,11.48,11.48,0,0,1-4.66,4.61,13.76,13.76,0,0,1-6.5,1.53,13.62,13.62,0,0,1-6.49-1.55,11.29,11.29,0,0,1-4.62-4.62,15.57,15.57,0,0,1-1.7-7.59v-5a15.77,15.77,0,0,1,1.72-7.68A11.4,11.4,0,0,1,535,87.88a14.16,14.16,0,0,1,13,0Zm-11.88,1.76a9.9,9.9,0,0,0-3.81,4.12,14.66,14.66,0,0,0-1.41,6.77v4.36a14.53,14.53,0,0,0,1.39,6.71,9.63,9.63,0,0,0,3.79,4.06,11.68,11.68,0,0,0,10.92,0,9.54,9.54,0,0,0,3.8-4,14.6,14.6,0,0,0,1.39-6.74v-4.36a14.71,14.71,0,0,0-1.39-6.72,9.79,9.79,0,0,0-3.81-4.15,11.25,11.25,0,0,0-10.87,0Z"/><path class="cls-3" d="M571.57,117.88a9.83,9.83,0,0,1-3.34-2.78,13.34,13.34,0,0,1-1.67-2.86h-.12v16.39h-2.17V86.84h2.14v6.4h.12a8.88,8.88,0,0,1,.91-1.88A10.93,10.93,0,0,1,569.37,89a10.39,10.39,0,0,1,3.14-2,12.93,12.93,0,0,1,10.72.83,11.43,11.43,0,0,1,4.26,4.58,15,15,0,0,1,1.56,7.06v6.16a14.88,14.88,0,0,1-1.68,7.43,11.13,11.13,0,0,1-4.44,4.43A12.4,12.4,0,0,1,577,119,11.47,11.47,0,0,1,571.57,117.88Zm10.19-2.12a9.38,9.38,0,0,0,3.68-3.87,14.15,14.15,0,0,0,1.41-6.73V100a14.18,14.18,0,0,0-1.33-6.4,9.49,9.49,0,0,0-3.59-4,9.61,9.61,0,0,0-5-1.35,9.78,9.78,0,0,0-5.71,1.62,10.14,10.14,0,0,0-3.54,4.26,13.54,13.54,0,0,0-1.2,5.67v5.61a13.14,13.14,0,0,0,1.29,5.87,10.21,10.21,0,0,0,3.65,4.15,10.38,10.38,0,0,0,10.38.27Z"/><path class="cls-3" d="M603.63,117.34a10.85,10.85,0,0,1-4.33-4.89,18,18,0,0,1-1.52-7.78v-3.55a19.29,19.29,0,0,1,1.55-8.2,11.07,11.07,0,0,1,4.32-5,13.12,13.12,0,0,1,12.74,0,11.18,11.18,0,0,1,4.31,5,19.1,19.1,0,0,1,1.56,8.18v1.65H600v1.84q0,6,2.82,9.21a9.64,9.64,0,0,0,7.6,3.2,11,11,0,0,0,5-1,7.93,7.93,0,0,0,3-2.46,6.3,6.3,0,0,0,1.2-2.85h2.23a7.71,7.71,0,0,1-.86,2.74,9.36,9.36,0,0,1-2.13,2.71,10.82,10.82,0,0,1-3.5,2,14.12,14.12,0,0,1-5,.8A13,13,0,0,1,603.63,117.34Zm16.46-16.44v-.18A16.28,16.28,0,0,0,618.83,94,9.1,9.1,0,0,0,610,88.31a9.71,9.71,0,0,0-5.31,1.44A9.45,9.45,0,0,0,601.21,94a16.28,16.28,0,0,0-1.26,6.74v.18Z"/><path class="cls-3" d="M632.34,86.84h2.17v6.28h.12a8.73,8.73,0,0,1,1.38-3,8.93,8.93,0,0,1,3-2.68,9.91,9.91,0,0,1,5-1.12,13.41,13.41,0,0,1,1.72.09c.45.06.76.11.95.15v2.12l-1-.19a11.9,11.9,0,0,0-1.88-.12,9.75,9.75,0,0,0-4.6,1.13A8.4,8.4,0,0,0,635.8,93a12.34,12.34,0,0,0-1.29,6v19.49h-2.17Z"/><line class="cls-4" x1="362.72" x2="362.72" y2="128.63"/></svg>