<svg id="Layer_1" data-name="Layer 1" xmlns="http://www.w3.org/2000/svg" viewBox="0 0 647.4 129.35"><defs><style>.cls-1{fill:#ffed8f;}</style></defs><path class="cls-1" d="M165.88,91.64c0-3.15-.95-5.49-2.85-7a11.84,11.84,0,0,0-7.59-2.28,16.49,16.49,0,0,0-6.73,1.39,17,17,0,0,0-5.31,3.52l-4.46-5.35a22.44,22.44,0,0,1,7.63-4.64,27.25,27.25,0,0,1,9.68-1.7,21.88,21.88,0,0,1,7.89,1.3,14.77,14.77,0,0,1,5.48,3.52,14.53,14.53,0,0,1,3.22,5.26,19.54,19.54,0,0,1,1.07,6.51v18.47c0,1.42,0,2.93.13,4.5a22.94,22.94,0,0,0,.49,3.88H167a26.12,26.12,0,0,1-.71-6.06H166a16.34,16.34,0,0,1-5.84,5.26,17.52,17.52,0,0,1-8.34,1.87,21.61,21.61,0,0,1-5.22-.67,14.93,14.93,0,0,1-4.95-2.18,12.25,12.25,0,0,1-3.7-4,11.92,11.92,0,0,1-1.47-6.15A10.86,10.86,0,0,1,139,99.44a16.48,16.48,0,0,1,6.78-4.28,38.55,38.55,0,0,1,9.45-1.92q5.27-.43,10.62-.44Zm-2,7.22q-3.12,0-6.47.27a30.24,30.24,0,0,0-6.06,1.07,11.52,11.52,0,0,0-4.51,2.41,5.47,5.47,0,0,0-1.78,4.28,5.86,5.86,0,0,0,.76,3.12,6.12,6.12,0,0,0,2,2,8.12,8.12,0,0,0,2.77,1.12,15.29,15.29,0,0,0,3.12.31q5.88,0,9.05-3.52a12.8,12.8,0,0,0,3.17-8.88V98.86Z"/><path class="cls-1" d="M186.33,81.47c-.06-1.78-.15-3.36-.27-4.73H194c.12,1.07.21,2.31.27,3.71s.09,2.54.09,3.43h.27a14.49,14.49,0,0,1,5.21-6,13.64,13.64,0,0,1,7.72-2.28,12.93,12.93,0,0,1,3.3.36l-.36,7.76a15.65,15.65,0,0,0-3.83-.45,11.7,11.7,0,0,0-5.27,1.12,10.74,10.74,0,0,0-3.7,3,12.57,12.57,0,0,0-2.18,4.32,18.17,18.17,0,0,0-.72,5.13V119h-8.38V85.84C186.42,84.71,186.39,83.25,186.33,81.47Z"/><path class="cls-1" d="M220.54,81.47c-.06-1.78-.15-3.36-.27-4.73h7.94c.12,1.07.21,2.31.27,3.71s.09,2.54.09,3.43h.27a14.49,14.49,0,0,1,5.21-6,13.64,13.64,0,0,1,7.72-2.28,12.93,12.93,0,0,1,3.3.36l-.36,7.76a15.65,15.65,0,0,0-3.83-.45,11.7,11.7,0,0,0-5.27,1.12,10.74,10.74,0,0,0-3.7,3,12.57,12.57,0,0,0-2.18,4.32,18.17,18.17,0,0,0-.72,5.13V119h-8.38V85.84C220.63,84.71,220.6,83.25,220.54,81.47Z"/><path class="cls-1" d="M294.7,97.53V99a11.44,11.44,0,0,1-.09,1.43H261a12.39,12.39,0,0,0,1.21,5,13.05,13.05,0,0,0,3,4.08,14,14,0,0,0,9.54,3.67,14.1,14.1,0,0,0,7.4-1.87,15.09,15.09,0,0,0,4.91-4.55l5.89,4.73a21.16,21.16,0,0,1-8,6.62,25.59,25.59,0,0,1-19.13.51,20.68,20.68,0,0,1-7.05-4.5,20.92,20.92,0,0,1-4.63-7,23.64,23.64,0,0,1-1.7-9.1,24.24,24.24,0,0,1,1.65-9,20.72,20.72,0,0,1,4.61-7.09,21.07,21.07,0,0,1,7-4.6,23.92,23.92,0,0,1,17.12-.13,17.45,17.45,0,0,1,6.43,4.37,19.61,19.61,0,0,1,4.07,6.91A27.54,27.54,0,0,1,294.7,97.53Zm-8.56-3.39a16.18,16.18,0,0,0-.85-4.69,10.89,10.89,0,0,0-2.23-3.79,10.53,10.53,0,0,0-3.66-2.54,13,13,0,0,0-5.13-.94,13.68,13.68,0,0,0-5,.94,13.25,13.25,0,0,0-4.1,2.54,13.39,13.39,0,0,0-2.85,3.79,12,12,0,0,0-1.3,4.69Z"/><path class="cls-1" d="M314.78,76.74c.12,1.07.21,2.28.27,3.62s.09,2.45.09,3.34h.27a12.21,12.21,0,0,1,2.18-3.17A15.68,15.68,0,0,1,320.76,78a15.1,15.1,0,0,1,3.92-1.74,15.71,15.71,0,0,1,4.46-.63A16.33,16.33,0,0,1,336.19,77a14.21,14.21,0,0,1,4.9,3.7,14.84,14.84,0,0,1,2.9,5.44,23,23,0,0,1,.94,6.69V119h-8.39V95.56a28.43,28.43,0,0,0-.4-4.9,12,12,0,0,0-1.47-4.11,8,8,0,0,0-2.94-2.85,9.69,9.69,0,0,0-4.82-1.07,10.13,10.13,0,0,0-8.16,3.79q-3.17,3.8-3.17,10.12V119H307.2V85.84c0-1.13,0-2.59-.09-4.37s-.15-3.36-.27-4.73Z"/><path class="cls-1" d="M34.51,106.11h.28L59.13,22.37H71l24.34,83.74h.28l23.78-83.74H129.8l-28.73,97.36H89.52L65,36.12h-.27L40.29,119.73H28.74L0,22.37H10.45Z"/><path class="cls-1" d="M194.34,57.62a28.37,28.37,0,0,1-9.72,8.25A30.3,30.3,0,0,1,170.26,69a35.33,35.33,0,0,1-13.33-2.45,30.8,30.8,0,0,1-10.53-6.87,31.55,31.55,0,0,1-6.91-10.52A35,35,0,0,1,137,35.77a35,35,0,0,1,2.54-13.52,30.62,30.62,0,0,1,7.05-10.43,32.06,32.06,0,0,1,10.66-6.74,36.49,36.49,0,0,1,13.38-2.4,35.49,35.49,0,0,1,6.51.62,32.77,32.77,0,0,1,6.33,1.87A26.42,26.42,0,0,1,189,8.25a20,20,0,0,1,4.28,4.24l-7,5.35a17.38,17.38,0,0,0-6.55-5.31,20.44,20.44,0,0,0-9.14-2.09,23.77,23.77,0,0,0-10,2,22.53,22.53,0,0,0-7.53,5.49A24.69,24.69,0,0,0,148.32,26a28,28,0,0,0-1.7,9.77,29.66,29.66,0,0,0,1.65,10A24,24,0,0,0,153,53.83a21.69,21.69,0,0,0,7.49,5.39,24,24,0,0,0,9.86,2,21.87,21.87,0,0,0,9.72-2.14,18.81,18.81,0,0,0,7.23-6.25Z"/><path class="cls-1" d="M211.64,31.57a13.15,13.15,0,0,1,5.18-5.35A15.5,15.5,0,0,1,225,24a16.33,16.33,0,0,1,7,1.39,14.25,14.25,0,0,1,4.91,3.7,15.14,15.14,0,0,1,2.9,5.44,23.31,23.31,0,0,1,.93,6.69V67.43h-8.38V44a29.67,29.67,0,0,0-.4-4.91A11.88,11.88,0,0,0,230.55,35a8.16,8.16,0,0,0-2.89-2.86A9.45,9.45,0,0,0,222.88,31a10.26,10.26,0,0,0-8.2,3.8q-3.21,3.79-3.21,10.15V67.43h-8.39V0h8.39V31.57Z"/><path class="cls-1" d="M294.5,45.93v1.43a11.43,11.43,0,0,1-.08,1.43H260.79a12.54,12.54,0,0,0,1.2,5,13.21,13.21,0,0,0,3,4.08,14,14,0,0,0,9.55,3.67,14.1,14.1,0,0,0,7.4-1.87,15.17,15.17,0,0,0,4.9-4.55l5.89,4.73a21.06,21.06,0,0,1-8,6.62,25.59,25.59,0,0,1-19.13.51,20.58,20.58,0,0,1-7.05-4.5,20.94,20.94,0,0,1-4.64-7,23.64,23.64,0,0,1-1.69-9.1,24.24,24.24,0,0,1,1.65-9.05,20.7,20.7,0,0,1,4.6-7.09,21.06,21.06,0,0,1,7-4.6,23.89,23.89,0,0,1,17.11-.13A17.49,17.49,0,0,1,289,29.88a19.59,19.59,0,0,1,4.06,6.91A27.23,27.23,0,0,1,294.5,45.93Zm-8.56-3.39a16.17,16.17,0,0,0-.84-4.68,10.89,10.89,0,0,0-2.23-3.79,10.58,10.58,0,0,0-3.66-2.54,13,13,0,0,0-5.13-.94,13.68,13.68,0,0,0-5,.94,13,13,0,0,0-4.1,2.54,13.61,13.61,0,0,0-2.86,3.79,12.19,12.19,0,0,0-1.29,4.68Z"/><path class="cls-1" d="M313.68,25.15c.12,1.07.21,2.28.27,3.61s.09,2.46.09,3.35h.27a12.21,12.21,0,0,1,2.18-3.17,15.68,15.68,0,0,1,3.17-2.58,15.1,15.1,0,0,1,3.92-1.74A15.71,15.71,0,0,1,328,24a16.33,16.33,0,0,1,7,1.39,14.12,14.12,0,0,1,4.9,3.7,14.84,14.84,0,0,1,2.9,5.44,23,23,0,0,1,.94,6.69V67.43h-8.39V44a28.43,28.43,0,0,0-.4-4.9A12,12,0,0,0,333.57,35a7.89,7.89,0,0,0-2.94-2.85A9.69,9.69,0,0,0,325.81,31a10.13,10.13,0,0,0-8.16,3.79q-3.16,3.8-3.17,10.12V67.43H306.1V34.25c0-1.13,0-2.59-.09-4.37s-.15-3.36-.27-4.73Z"/></svg>